<svg xmlns="http://www.w3.org/2000/svg" viewBox="0 0 324.5 435.4"><title>heart-sat</title><g style="isolation:isolate"><path d="M444.2,521.3s-13.7,13.2-12.3,13.7,10.8,9.9,12.3,9.4,14.2-8.5,14.2-8.5Z" transform="translate(-269 -109)" fill="#4d9173" style="mix-blend-mode:multiply"/><path d="M418.3,504.5l19.5,21s-6,12.5-5.9,12S396.5,514.3,398,514,418.3,504.5,418.3,504.5Z" transform="translate(-269 -109)" fill="#4d9065" opacity="0.5" style="mix-blend-mode:multiply"/><path d="M394.8,478l23.1,24-16.4,13s-23.2-17.5-23-18.5S394.8,478,394.8,478Z" transform="translate(-269 -109)" fill="#4d9065" opacity="0.5" style="mix-blend-mode:multiply"/><polygon points="149.3 395.5 173 423.8 217.8 366 149.3 395.5" fill="#4ea67e" opacity="0.5" style="mix-blend-mode:multiply"/><path d="M483.3,479.5l16,8.5-40.9,47.9s-14.2-5.9-13.3-7.1Z" transform="translate(-269 -109)" fill="#4ba476" style="mix-blend-mode:multiply"/><path d="M484,486.3s21-47.7,22.5-47.5,26.8-4.7,26.8-4.7l-34,54Z" transform="translate(-269 -109)" fill="#4e8f69" style="mix-blend-mode:multiply"/><path d="M484.4,478l16.3-40s25.8-41.7,26.5-41.2l24.5,17.8-22.9,26.4-45.6,38.6H487" transform="translate(-269 -109)" fill="#52a56c" style="mix-blend-mode:multiply"/><polygon points="149.3 395.5 173 423.8 217.8 366 149.3 395.5" fill="#4d9065" style="mix-blend-mode:multiply"/><polygon points="129 405 162.9 428.5 168.8 416.5 149.3 395.5 129 405" fill="#4ea779" style="mix-blend-mode:multiply"/><polygon points="127 369 148.9 393 146.5 394.9 132.5 406 109.5 387.5 125.8 369 153.3 347.5 168.8 388.5 127 369" fill="#4da573" style="mix-blend-mode:multiply"/><polyline points="147.8 394.9 168.8 388.5 127 369 149.3 395.5" fill="#62a960" style="mix-blend-mode:multiply"/><polygon points="152 345 220 325 217.8 366 160.3 387.5 152 345" fill="#4ea67e" style="mix-blend-mode:multiply"/><polygon points="168.8 332.3 122.8 346 129 375.5 168.8 332.3" fill="#62a960" style="mix-blend-mode:multiply"/><polygon points="42 332.3 113.8 295.8 127 370.5 109.5 389.5 91.5 379 42 332.3" fill="#6cc161" style="mix-blend-mode:multiply"/><polygon points="111.3 287.7 121 347.5 173.5 336.5 170.3 287.7 111.3 287.7" fill="#7bbf60" style="mix-blend-mode:multiply"/><polygon points="161.5 280.3 230.3 280.3 224.8 325 170.3 342.6 161.5 280.3" fill="#89c75f" style="mix-blend-mode:multiply"/><polygon points="222.8 285.3 260.8 285.3 216.8 370.5 222.8 285.3" fill="#64c380" style="mix-blend-mode:multiply"/><path d="M506.3,347.3l34.5,6.5-14.2,45s-35-1-34.9-2S506.3,347.3,506.3,347.3Z" transform="translate(-269 -109)" fill="#7bc76d" style="mix-blend-mode:multiply"/><polygon points="245.8 236 222.6 288.8 161.5 283.3 181.5 220.8 245.8 236" fill="#b4bb48" style="mix-blend-mode:multiply"/><path d="M491.6,316l17.1,42.9s29.9-7.4,30.1-8.2-5.5-59.7-5.5-59.7Z" transform="translate(-269 -109)" fill="#b8d64d" style="mix-blend-mode:multiply"/><path d="M499.3,303.5c.5,1.5,12.3,49.5,12.3,49.5s-67.1-20.2-66.4-20.2S499.3,303.5,499.3,303.5Z" transform="translate(-269 -109)" fill="#c7d736" style="mix-blend-mode:multiply"/><path d="M362,347.3c.3,1,20.2,61.3,20.2,61.3l65.6-11.9V331.4Z" transform="translate(-269 -109)" fill="#c5d949" style="mix-blend-mode:multiply"/><path d="M326.8,353c1-.5,41-5.7,41-5.7l13.4,58.3-30.6,15.6Z" transform="translate(-269 -109)" fill="#a6d157" style="mix-blend-mode:multiply"/><path d="M283.3,404.8c1.3-.2,60-16,60.5-15.5s9.8,37.4,9.8,37.4L311,442.5Z" transform="translate(-269 -109)" fill="#8dca5d" style="mix-blend-mode:multiply"/><path d="M269,363.8c.8-.2,66.5-7.5,66.5-7.5l6.5,40.5L284.2,406Z" transform="translate(-269 -109)" fill="#b8d64d" style="mix-blend-mode:multiply"/><path d="M560.5,291l6.3,46.3s-39,.3-39,0,3.8-46.2,3.8-46.2Z" transform="translate(-269 -109)" fill="#e4e363" style="mix-blend-mode:multiply"/><polygon points="320.5 182 324.5 228.4 290.3 222.4 288.5 194.5 320.5 182" fill="#e1e24a" style="mix-blend-mode:multiply"/><path d="M561.3,256.3V308s28.9-9.9,28.8-10.2-2.6-10-2.6-10l-12-24Z" transform="translate(-269 -109)" fill="#ffdc51" style="mix-blend-mode:multiply"/><polygon points="206.8 174.3 292.3 148.8 292.5 188.8 228.8 199 206.8 174.3" fill="#ffeb4a" style="mix-blend-mode:multiply"/><path d="M472.6,269.3c.4,1,4.4,13.6,4.4,13.6l40.5-13.6-11.2-20Z" transform="translate(-269 -109)" fill="#ffcd62" style="mix-blend-mode:multiply"/><polygon points="289.8 147.3 238.8 141.5 239.7 163.2 274 166.3 289.8 147.3" fill="#fece4c" style="mix-blend-mode:multiply"/><polygon points="269.8 222.4 297.8 228.3 258.3 287.8 269.8 222.4" fill="#78c565" style="mix-blend-mode:multiply"/><polygon points="300.5 222.4 257.5 289.8 282.8 305.5 299.3 287.7 324.5 230.5 300.5 222.4" fill="#6ec570" style="mix-blend-mode:multiply"/><polygon points="205 176.5 177.8 194.5 191.4 220.8 230.3 198.8 205 176.5" fill="#f6ec78" style="mix-blend-mode:multiply"/><polygon points="184.8 157.1 209.3 173.9 176.1 200.8 168.8 173.9 184.8 157.1" fill="#d0dc60" style="mix-blend-mode:multiply"/><path d="M430.5,282.9l7.3-5.1,10.8,29,.5,1.3s-17.1,10.3-17.2,9.3S430.5,282.9,430.5,282.9Z" transform="translate(-269 -109)" fill="#d8e178" style="mix-blend-mode:multiply"/><polygon points="190.8 216 172 226.3 162.9 208.3 180.1 199 190.8 216" fill="#dde692" style="mix-blend-mode:multiply"/><path d="M426,320.5l16.5,15.8-44.5,11s-12.2-25.2-11.5-25.6S426,320.5,426,320.5Z" transform="translate(-269 -109)" fill="#fdf07c" style="mix-blend-mode:multiply"/><polygon points="65.5 175.3 119.8 203.8 127 236.3 87 238.3 65.5 175.3" fill="#f1f0ab" style="mix-blend-mode:multiply"/><polygon points="53.5 182 64.3 247.3 88.6 239.6 65.5 175.3 53.5 182" fill="#fee95b" style="mix-blend-mode:multiply"/><path d="M311,291l-20.2,18.8,39.3,6c-.2,0-7.5-24.7-7.5-24.7Z" transform="translate(-269 -109)" fill="#feef93" style="mix-blend-mode:multiply"/><path d="M288,309.8s-20.2,54.2-19,54l64.3-7.5-6.8-41.1Z" transform="translate(-269 -109)" fill="#ffcf3f" style="mix-blend-mode:multiply"/><path d="M311,289c2,0,12.3.3,11.5,0s-5.7-13.7-5.7-13.7h-8Z" transform="translate(-269 -109)" fill="#f7cb79" style="mix-blend-mode:multiply"/><polygon points="71.1 147.3 65.5 165.3 82 171.3 83.3 157.1 71.1 147.3" fill="#ffeb53" style="mix-blend-mode:multiply"/><path d="M374.5,256.3l-9.2,9.8s2.3,16.3,3,16.1l16.3-4.4Z" transform="translate(-269 -109)" fill="#fece4c" style="mix-blend-mode:multiply"/><polygon points="111.3 175.3 102.8 180.1 117.5 188.5 121.3 178.9 111.3 175.3" fill="#fee691" style="mix-blend-mode:multiply"/><polygon points="126 181.9 126 198.6 147.9 199 135.9 176.5 126 181.9" fill="#ffd844" style="mix-blend-mode:multiply"/><polygon points="137 153.9 142.4 163.5 137 167.3 132.5 160.2 137 153.9" fill="#fdca79" style="mix-blend-mode:multiply"/><path d="M414.5,234.8s0,30,0,29.3,6.3-7.2,6.5-7.7,0-21.5,0-21.5Z" transform="translate(-269 -109)" fill="#dae041" style="mix-blend-mode:multiply"/><rect x="162.9" y="141.5" width="2.9" height="12.38" fill="#b9d152" style="mix-blend-mode:multiply"/><polygon points="176.9 125.8 170.8 135 177.8 141.5 186 133.6 176.9 125.8" fill="#e9cc49" style="mix-blend-mode:multiply"/><path d="M461.8,244.5l-7.7,6s3,6.8,3.9,5.8,9.1-11.7,9.1-11.7Z" transform="translate(-269 -109)" fill="#dae147" style="mix-blend-mode:multiply"/><polygon points="211.5 80.5 191.5 116 198 117.3 213.3 98.9 211.5 80.5" fill="#ffc151" style="mix-blend-mode:multiply"/><path d="M499.3,193s-6.5,12.8-5.7,13l5.8,1.9,2.8-7.4Z" transform="translate(-269 -109)" fill="#bdd24b" style="mix-blend-mode:multiply"/><path d="M445.8,198.3,455,219s-17,7.5-17.2,7.3,0-28,0-28Z" transform="translate(-269 -109)" fill="#f6af78" style="mix-blend-mode:multiply"/><polygon points="145.5 89.3 152 108.8 138.5 110 137.5 97.3 145.5 89.3" fill="#f9b64c" style="mix-blend-mode:multiply"/><polygon points="122.8 110 138.8 125.8 127 143 112.2 125.8 122.8 110" fill="#e89e41" style="mix-blend-mode:multiply"/><polygon points="88.6 84 93 88 100.8 135.5 76.8 135.5 88.6 84" fill="#f7a43c" style="mix-blend-mode:multiply"/><path d="M334.5,230.3c-.2.8-1.2,16-1.2,16l-6.5,4.2V234.8Z" transform="translate(-269 -109)" fill="#e7833b" style="mix-blend-mode:multiply"/><polygon points="44.8 125.8 51.8 147.3 42 147.7 36.6 125.8 44.8 125.8" fill="#e9653d" style="mix-blend-mode:multiply"/><polygon points="28.5 141.4 36.6 151.3 32.6 157.1 21.8 147.3 28.5 141.4" fill="#f3743b" style="mix-blend-mode:multiply"/><polygon points="14.3 117.3 21.8 121.3 16.5 126.5 9.8 121.3 14.3 117.3" fill="#f58f3c" style="mix-blend-mode:multiply"/><path d="M311,219c.5,1.5,2.1,7.3,2.1,7.3h5.2l-2.7-7.5Z" transform="translate(-269 -109)" fill="#f6a435" style="mix-blend-mode:multiply"/><path d="M320.8,193c-.2,1.8,6,26,6,26h7.8l-2.7-26Z" transform="translate(-269 -109)" fill="#d58741" style="mix-blend-mode:multiply"/><polygon points="29.2 71.3 42 89.3 28 99.6 14.3 79.5 29.2 71.3" fill="#ee4e41" style="mix-blend-mode:multiply"/><polygon points="74.4 89.3 74.4 101.8 83.3 89.3 74.4 89.3" fill="#f29936" style="mix-blend-mode:multiply"/><path d="M376,206s1.3,7.5,2,7.5a30.6,30.6,0,0,0,4.3-1.2V200.4Z" transform="translate(-269 -109)" fill="#f7ab4b" style="mix-blend-mode:multiply"/><polygon points="86.1 24 102.1 39.8 90.3 57 75.5 39.8 86.1 24" fill="#e5513f" style="mix-blend-mode:multiply"/><polygon points="143.2 40.5 137.2 49.8 144.1 56.3 152.3 48.4 143.2 40.5" fill="#c93540" style="mix-blend-mode:multiply"/><polygon points="196.5 46.5 190.5 55.8 197.4 62.3 205.6 54.4 196.5 46.5" fill="#f15745" style="mix-blend-mode:multiply"/><polygon points="47.9 37.9 41.8 47.1 48.8 53.6 57 45.8 47.9 37.9" fill="#f05642" style="mix-blend-mode:multiply"/><path d="M396,173c.5,1.5,2.1,7.3,2.1,7.3h5.2l-2.7-7.5Z" transform="translate(-269 -109)" fill="#ec5841" style="mix-blend-mode:multiply"/><path d="M417.6,109.3c.5,1.5,2.1,7.3,2.1,7.3H425l-2.7-7.5Z" transform="translate(-269 -109)" fill="#ef5945" style="mix-blend-mode:multiply"/></g></svg>