<svg xmlns="http://www.w3.org/2000/svg" viewBox="-325 280.2 190.1 36.1"><path fill="#FFF" d="M-291.7 287.4h6.7V298h.1c.3-.5.6-1 1.1-1.4s1-.8 1.5-1.1c.6-.3 1.2-.5 1.8-.7.6-.2 1.3-.2 1.9-.2 1.7 0 3.1.3 4.1.8 1 .6 1.7 1.2 2.2 2 .5.8.8 1.7.9 2.6.1.9.2 1.8.2 2.5v13.2h-6.8v-10-2.1c0-.7-.1-1.3-.3-1.8-.2-.5-.5-1-1-1.3-.5-.3-1.2-.5-2.1-.5-.6 0-1.2.1-1.6.4-.5.3-.8.6-1.1 1-.3.4-.5.9-.7 1.4-.1.5-.2 1.1-.2 1.6v11.2h-6.7v-28.2zM-263.3 292.5h-6.7v-5.1h6.7v5.1zm-6.7 2.6h6.7v20.6h-6.7v-20.6zM-256.1 308.9c0 .5.1 1 .3 1.3.2.4.5.7.8 1 .3.2.7.4 1.1.5s.9.2 1.4.2c.3 0 .7 0 1-.1.4-.1.7-.2 1-.4.3-.2.6-.4.8-.7.2-.3.3-.6.3-1s-.1-.7-.4-1c-.2-.3-.5-.5-.9-.6-.3-.2-.7-.3-1.1-.4s-.7-.2-1-.2c-1.1-.3-2.2-.5-3.3-.7-1.1-.2-2.2-.5-3.1-1-.9-.4-1.7-1-2.3-1.8-.6-.8-.9-1.9-.9-3.3 0-1.2.3-2.3.9-3.1.6-.8 1.4-1.4 2.3-1.9s1.9-.8 3.1-1c1.1-.2 2.2-.3 3.2-.3 1.1 0 2.3.1 3.4.3 1.1.2 2.1.5 3 1 .9.5 1.6 1.2 2.2 2 .6.9.9 2 .9 3.3h-6.2c0-.8-.3-1.4-.9-1.8-.5-.3-1.2-.5-2.1-.5h-.9c-.3 0-.6.1-.9.2-.3.1-.5.3-.7.5-.2.2-.3.5-.3.8 0 .5.2.9.8 1.2.5.3 1.1.6 1.9.8.8.2 1.6.4 2.5.5.9.2 1.7.3 2.5.5 1 .2 1.9.5 2.6 1 .7.4 1.2.9 1.6 1.5.4.5.7 1.1.8 1.6.2.6.2 1 .2 1.5 0 1.4-.3 2.5-.9 3.5-.6.9-1.4 1.7-2.3 2.3s-2 1-3.2 1.2c-1.2.2-2.3.4-3.5.4s-2.4-.1-3.6-.3c-1.2-.2-2.3-.6-3.2-1.2s-1.7-1.3-2.3-2.3c-.6-1-.9-2.1-1-3.6h6.4v.1zM-225.6 299.5h-7.1v9.4c0 .8.2 1.4.7 1.6.4.3 1 .4 1.8.4h1.8v5c-.6 0-1.2.1-1.8.1-.6.1-1.2.1-1.8.1-1.4 0-2.6-.1-3.6-.4-.9-.2-1.7-.6-2.2-1.2s-.9-1.3-1.1-2.2c-.2-.9-.3-2.1-.3-3.5v-9.2h-3.4v-4.4h3.4v-6.3h6.7v6.2h7.1v4.4h-.2zM-200.1 299l-.6-.9c-.9-1.1-2-2-3.4-2.7-1.4-.6-3-1-4.8-1-1.5 0-2.9.3-4.3.8-1.3.5-2.5 1.3-3.6 2.2-1 1-1.8 2.1-2.4 3.4-.6 1.3-.9 2.8-.9 4.4 0 1.7.3 3.3.8 4.6.5 1.4 1.3 2.5 2.3 3.5 1 .9 2.2 1.7 3.6 2.1 1.4.5 2.9.7 4.6.7 1.1 0 2.3-.1 3.4-.4 1.1-.3 2.1-.7 3-1.2.9-.6 1.7-1.3 2.4-2.1.7-.9 1.2-1.9 1.5-3.1h-6.3c-.3.8-.8 1.3-1.5 1.7-.7.4-1.5.6-2.3.6-1.4 0-2.5-.4-3.3-1.3-.8-.8-1.2-2-1.3-3.4h13.9c-.6-1.7-.9-3.5-.9-5.5 0-.7 0-1.6.1-2.4zm-13.2 4.3c.2-1.3.7-2.3 1.4-3.1.8-.8 1.7-1.1 2.9-1.1 1.1 0 2.1.4 2.8 1.2.7.8 1.1 1.8 1.2 3h-8.3z"/><path fill="#09F" d="M-134.9 299.5v-4.4h-4.2v-6.2h-6.7v6.2H-156v11c0 .9-.1 1.7-.4 2.3-.3.6-.6 1.1-.9 1.4-.4.4-.8.6-1.2.7-.4.1-.8.2-1.2.2-1.1 0-1.9-.3-2.5-.8s-.9-1.5-.9-2.9v-11.9h-6.7v12.4c0 1.3.1 2.6.4 3.7.2 1.1.6 2 1.2 2.8.6.8 1.4 1.4 2.3 1.8 1 .4 2.2.6 3.7.6 1.2 0 2.4-.3 3.6-.9 1.2-.6 2.1-1.4 2.7-2.5h.1v2.8h6.5v-16.3h3.4v9.2c0 1.4.1 2.6.3 3.5s.6 1.7 1.1 2.2c.5.6 1.3 1 2.2 1.2.9.2 2.1.4 3.6.4.6 0 1.2 0 1.8-.1s1.2-.1 1.8-.1v-5h-1.8c-.7 0-1.3-.1-1.8-.4-.4-.2-.7-.8-.7-1.6v-9.4l4.5.1z"/><path fill="#FFF" d="M-220.8 284.1v-3.9h-6.7v35.5h6.7v-27.3h-4.2z"/><path fill="#09F" d="M-198.6 301.5c0-2.1.3-4 .9-5.8s1.5-3.3 2.7-4.7c1.2-1.3 2.7-2.4 4.4-3.2 1.7-.8 3.7-1.2 5.9-1.2s4.2.4 5.9 1.2c1.7.8 3.2 1.8 4.4 3.2 1.2 1.3 2.1 2.9 2.7 4.7.6 1.8.9 3.7.9 5.8 0 2.1-.3 4-.9 5.8-.6 1.8-1.5 3.3-2.7 4.7-1.2 1.3-2.7 2.4-4.4 3.2s-3.7 1.2-5.9 1.2-4.2-.4-5.9-1.2-3.2-1.8-4.4-3.2c-1.2-1.3-2.1-2.9-2.7-4.7-.6-1.8-.9-3.7-.9-5.8zm7.3 0c0 1.1.1 2.1.4 3.1.2 1 .6 1.9 1.2 2.7.5.8 1.2 1.4 2 1.9s1.8.7 3 .7 2.2-.2 3-.7 1.5-1.1 2-1.9c.5-.8.9-1.7 1.2-2.7.2-1 .4-2 .4-3.1s-.1-2.1-.4-3.1c-.2-1-.6-1.9-1.2-2.7-.5-.8-1.2-1.4-2-1.9s-1.8-.7-3-.7-2.2.2-3 .7-1.5 1.1-2 1.9-.9 1.7-1.2 2.7c-.2 1-.4 2.1-.4 3.1z"/><path fill="#FFF" d="M-302.2 308.4h-.1l-3-13.3h-6.4l-2.9 13.3h-.1l-3.5-13.3h-6.8l6.4 20.6h6.9l3.2-13.7 3.3 13.7h6.8l6.5-20.6h-6.9z"/></svg>