<svg xmlns="http://www.w3.org/2000/svg" viewBox="0 0 190.1 36.2"><title>logo_wo_footer</title><path d="M33.3,7.2H40V17.8h.1a4.9,4.9,0,0,1,1.1-1.4l1.5-1.1,1.8-.7a6.2,6.2,0,0,1,1.9-.2,9.3,9.3,0,0,1,4.1.8,6.2,6.2,0,0,1,2.2,2,6.2,6.2,0,0,1,.9,2.6,24.9,24.9,0,0,1,.2,2.5V35.5H47V23.4a4.8,4.8,0,0,0-.3-1.8,2.6,2.6,0,0,0-1-1.3,4.1,4.1,0,0,0-2.1-.5,2.7,2.7,0,0,0-1.6.4,3.6,3.6,0,0,0-1.1,1,6.1,6.1,0,0,0-.7,1.4,8.8,8.8,0,0,0-.2,1.6V35.4H33.3V7.2Z" transform="translate(0 0)" fill="#666"/><path d="M61.7,12.3H55V7.2h6.7ZM55,14.9h6.7V35.5H55Z" transform="translate(0 0)" fill="#666"/><path d="M68.9,28.7a2.5,2.5,0,0,0,.3,1.3,3.9,3.9,0,0,0,.8,1l1.1.5,1.4.2h1l1-.4a2.7,2.7,0,0,0,.8-.7,1.7,1.7,0,0,0,.3-1,1.3,1.3,0,0,0-.4-1,1.5,1.5,0,0,0-.9-.6l-1.1-.4-1-.2-3.3-.7a10.3,10.3,0,0,1-3.1-1,5.8,5.8,0,0,1-2.3-1.8,5.4,5.4,0,0,1-.9-3.3,5.2,5.2,0,0,1,.9-3.1,7.1,7.1,0,0,1,2.3-1.9,9.4,9.4,0,0,1,3.1-1l3.2-.3a19.5,19.5,0,0,1,3.4.3,9.6,9.6,0,0,1,3,1,7,7,0,0,1,2.2,2,5.8,5.8,0,0,1,.9,3.3H75.4a2,2,0,0,0-.9-1.8,4.1,4.1,0,0,0-2.1-.5h-.9l-.9.2a1.8,1.8,0,0,0-.7.5,1.1,1.1,0,0,0-.3.8,1.2,1.2,0,0,0,.8,1.2,6.8,6.8,0,0,0,1.9.8l2.5.5,2.5.5a6.7,6.7,0,0,1,2.6,1,4.6,4.6,0,0,1,1.6,1.5,4,4,0,0,1,.8,1.6,4.1,4.1,0,0,1,.2,1.5,6.5,6.5,0,0,1-.9,3.5,8.4,8.4,0,0,1-2.3,2.3,8.2,8.2,0,0,1-3.2,1.2,20.9,20.9,0,0,1-3.5.4,21.9,21.9,0,0,1-3.6-.3,8.2,8.2,0,0,1-3.2-1.2,7.2,7.2,0,0,1-2.3-2.3,7.6,7.6,0,0,1-1-3.6Z" transform="translate(0 0)" fill="#666"/><path d="M99.4,19.3H92.3v9.4c0,.8.2,1.4.7,1.6a3,3,0,0,0,1.8.4h1.8v5H93a12.8,12.8,0,0,1-3.6-.4,4,4,0,0,1-2.2-1.2,5.1,5.1,0,0,1-1.1-2.2,16.9,16.9,0,0,1-.3-3.5V19.4H82.4V15h3.4V8.7h6.7v6.2h7.1v4.4h-.2Z" transform="translate(0 0)" fill="#666"/><path d="M124.9,18.8l-.6-.9a10.2,10.2,0,0,0-3.4-2.7,12.1,12.1,0,0,0-4.8-1,12.6,12.6,0,0,0-4.3.8,13.4,13.4,0,0,0-3.6,2.2,11.6,11.6,0,0,0-2.4,3.4,10.5,10.5,0,0,0-.9,4.4,13,13,0,0,0,.8,4.6,9.1,9.1,0,0,0,5.9,5.6,13.5,13.5,0,0,0,4.6.7,13.2,13.2,0,0,0,3.4-.4,13.4,13.4,0,0,0,3-1.2,12.1,12.1,0,0,0,2.4-2.1,8.1,8.1,0,0,0,1.5-3.1h-6.3a3.1,3.1,0,0,1-1.5,1.7,4.6,4.6,0,0,1-2.3.6,4.2,4.2,0,0,1-3.3-1.3,5.2,5.2,0,0,1-1.3-3.4h13.9a16.3,16.3,0,0,1-.9-5.5A20.1,20.1,0,0,1,124.9,18.8Zm-13.2,4.3a5.9,5.9,0,0,1,1.4-3.1,3.8,3.8,0,0,1,2.9-1.1,3.6,3.6,0,0,1,2.8,1.2,5.1,5.1,0,0,1,1.2,3h-8.3Z" transform="translate(0 0)" fill="#666"/><path d="M190.1,19.3V14.9h-4.2V8.7h-6.7v6.2H169v11a5.3,5.3,0,0,1-.4,2.3,5.7,5.7,0,0,1-.9,1.4,2.5,2.5,0,0,1-1.2.7l-1.2.2a3.7,3.7,0,0,1-2.5-.8,3.7,3.7,0,0,1-.9-2.9V14.9h-6.7V27.3a14.5,14.5,0,0,0,.4,3.7,6.5,6.5,0,0,0,1.2,2.8,5.8,5.8,0,0,0,2.3,1.8,9.9,9.9,0,0,0,3.7.6,8,8,0,0,0,3.6-.9,6,6,0,0,0,2.7-2.5h.1v2.8h6.5V19.3h3.4v9.2a16.9,16.9,0,0,0,.3,3.5,4.6,4.6,0,0,0,1.1,2.2,4,4,0,0,0,2.2,1.2,16.3,16.3,0,0,0,3.6.4h3.6v-5h-1.8a3.4,3.4,0,0,1-1.8-.4,1.7,1.7,0,0,1-.7-1.6V19.2Z" transform="translate(0 0)" fill="#666"/><polygon points="104.2 3.9 104.2 0 97.5 0 97.5 35.5 104.2 35.5 104.2 8.2 100 8.2 104.2 3.9" fill="#666"/><path d="M126.4,21.3a18.1,18.1,0,0,1,.9-5.8,13.7,13.7,0,0,1,2.7-4.7,14.3,14.3,0,0,1,4.4-3.2,15.1,15.1,0,0,1,11.8,0,13,13,0,0,1,7.1,7.9,18.1,18.1,0,0,1,.9,5.8,18.1,18.1,0,0,1-.9,5.8,13.7,13.7,0,0,1-2.7,4.7,14.3,14.3,0,0,1-4.4,3.2,15.1,15.1,0,0,1-11.8,0,13,13,0,0,1-7.1-7.9A18.1,18.1,0,0,1,126.4,21.3Zm7.3,0a10.6,10.6,0,0,0,.4,3.1,6.6,6.6,0,0,0,1.2,2.7,6.1,6.1,0,0,0,2,1.9,6.8,6.8,0,0,0,6,0,6.1,6.1,0,0,0,2-1.9,11.1,11.1,0,0,0,1.2-2.7,15.5,15.5,0,0,0,.4-3.1,10.6,10.6,0,0,0-.4-3.1,6.6,6.6,0,0,0-1.2-2.7,6.1,6.1,0,0,0-2-1.9,6.8,6.8,0,0,0-6,0,6.1,6.1,0,0,0-2,1.9,11.1,11.1,0,0,0-1.2,2.7A16.5,16.5,0,0,0,133.7,21.3Z" transform="translate(0 0)" fill="#666"/><polygon points="22.8 28.2 22.7 28.2 19.7 14.9 13.3 14.9 10.4 28.2 10.3 28.2 6.8 14.9 0 14.9 6.4 35.5 13.3 35.5 16.5 21.8 16.5 21.8 19.8 35.5 26.6 35.5 33.1 14.9 26.2 14.9 22.8 28.2" fill="#666"/></svg>